<svg width="43" height="43" viewBox="0 0 43 43" fill="none" xmlns="http://www.w3.org/2000/svg">
<path d="M37.3383 8.25968C36.4232 7.34415 35.3367 6.61788 34.1408 6.12237C32.945 5.62686 31.6632 5.37183 30.3687 5.37183C29.0743 5.37183 27.7925 5.62686 26.5966 6.12237C25.4008 6.61788 24.3143 7.34415 23.3992 8.25968L21.5 10.1588L19.6008 8.25968C17.7524 6.41123 15.2453 5.37278 12.6312 5.37278C10.0171 5.37278 7.51011 6.41123 5.66166 8.25968C3.81321 10.1081 2.77477 12.6152 2.77477 15.2293C2.77476 17.8434 3.81321 20.3504 5.66166 22.1988L21.5 38.0372L37.3383 22.1988C38.2539 21.2837 38.9801 20.1972 39.4756 19.0014C39.9711 17.8055 40.2262 16.5237 40.2262 15.2293C40.2262 13.9348 39.9711 12.653 39.4756 11.4572C38.9801 10.2613 38.2539 9.17478 37.3383 8.25968Z" stroke="#1E1E1E" stroke-width="4" stroke-linecap="round" stroke-linejoin="round"/>
</svg>
