<svg width="43" height="43" viewBox="0 0 43 43" fill="none" xmlns="http://www.w3.org/2000/svg">
<g clip-path="url(#clip0_27_189)">
<path d="M1.79167 1.79175H8.95834L13.76 25.7822C13.9238 26.607 14.3726 27.348 15.0277 27.8754C15.6828 28.4027 16.5025 28.6829 17.3433 28.6667H34.7583C35.5992 28.6829 36.4189 28.4027 37.074 27.8754C37.7291 27.348 38.1778 26.607 38.3417 25.7822L41.2083 10.7501H10.75M17.9167 37.6251C17.9167 38.6146 17.1145 39.4167 16.125 39.4167C15.1355 39.4167 14.3333 38.6146 14.3333 37.6251C14.3333 36.6356 15.1355 35.8334 16.125 35.8334C17.1145 35.8334 17.9167 36.6356 17.9167 37.6251ZM37.625 37.6251C37.625 38.6146 36.8228 39.4167 35.8333 39.4167C34.8438 39.4167 34.0417 38.6146 34.0417 37.6251C34.0417 36.6356 34.8438 35.8334 35.8333 35.8334C36.8228 35.8334 37.625 36.6356 37.625 37.6251Z" stroke="#1E1E1E" stroke-width="4" stroke-linecap="round" stroke-linejoin="round"/>
</g>
<defs>
<clipPath id="clip0_27_189">
<rect width="43" height="43" fill="white"/>
</clipPath>
</defs>
</svg>
